<?xml version="1.0" encoding="UTF-8"?>
<svg id="uuid-bba056a5-9009-46f9-846a-ccbc6d996e35" data-name="Layer 1" xmlns="http://www.w3.org/2000/svg" viewBox="0 0 18.32 30">
  <g>
    <path d="M11.55,7.48c-.37-.92-1.57-1.98-2.38-1.98s-2.01,1.06-2.38,1.98c-1.75-.19-3.12-1.68-3.12-3.48S5.03.71,6.77.52c.2.49.62.92.83,1.12.28.26,1,.86,1.68.86.82-.03,1.92-1.07,2.27-1.98,1.75.2,3.11,1.68,3.11,3.48s-1.37,3.29-3.12,3.48Z" style="fill: #2bb673;"/>
    <path d="M6.5,1.07c.6,1.02,1.89,1.93,2.79,1.93h.04s.02,0,.02,0c.88-.03,1.97-.95,2.5-1.92,1.33.31,2.32,1.5,2.32,2.92s-1,2.62-2.33,2.93c-.57-.99-1.74-1.93-2.67-1.93s-2.1.93-2.67,1.93c-1.33-.3-2.33-1.5-2.33-2.93s1-2.62,2.34-2.93M11.16,0c0,.68-1.17,1.97-1.85,2,0,0-.02,0-.02,0-.74,0-2.12-1.27-2.12-2C4.95,0,3.16,1.79,3.16,4s1.79,4,4,4c0-.71,1.29-2,2-2s2,1.29,2,2c2.21,0,4-1.79,4-4S13.37,0,11.16,0h0Z" style="fill: #231f20;"/>
  </g>
  <path d="M17.16,6c3.48,5.64-1.37,24-8,24S-2.32,11.64,1.16,6c1.18-1.9,5.76-2,8-2s6.82.1,8,2Z" style="fill: #f7941d;"/>
  <g>
    <path d="M12,27.79c-.37-.69-1.46-2.5-3-2.5-1.54,0-2.62,1.81-3,2.5h6Z" style="fill: #fbb040;"/>
    <path d="M12.42,28.04h-6.84l.2-.37c.53-.98,1.65-2.63,3.22-2.63h0c1.56,0,2.69,1.65,3.22,2.63l.2.37ZM6.44,27.54h5.14c-.53-.88-1.43-2-2.57-2h0c-1.13,0-2.04,1.13-2.57,2Z" style="fill: #fbb040;"/>
  </g>
  <path d="M1.16,12.09c1-.69,3.88-2.5,7.99-2.5,4.12,0,7.01,1.81,8.01,2.5" style="fill: none; stroke: #fbb040; stroke-miterlimit: 10; stroke-width: 3px;"/>
  <path d="M1.66,17.74c.94-.69,3.64-2.5,7.49-2.5,3.86,0,6.57,1.81,7.51,2.5" style="fill: none; stroke: #fbb040; stroke-miterlimit: 10; stroke-width: 2.5px;"/>
  <path d="M3.84,23.5l-1.36-1.47c1.12-1.03,3.47-2.76,6.67-2.77h0c3.21,0,5.56,1.73,6.68,2.77l-1.36,1.47c-.9-.83-2.79-2.23-5.32-2.23h0c-2.52,0-4.41,1.4-5.31,2.23Z" style="fill: #fbb040;"/>
  <path d="M9.16,6c5.53,0,6.27,1.01,6.3,1.05,1.85,2.99.61,11.88-2.41,17.29-1.28,2.29-2.73,3.66-3.89,3.66s-2.61-1.37-3.89-3.66C2.25,18.93,1.01,10.04,2.86,7.05c.03-.04.77-1.05,6.3-1.05M9.16,4c-2.24,0-6.82.1-8,2-3.48,5.64,1.37,24,8,24S20.64,11.64,17.16,6c-1.18-1.9-5.76-2-8-2h0Z" style="fill: #231f20;"/>
</svg>