<svg xmlns="http://www.w3.org/2000/svg" xmlns:xlink="http://www.w3.org/1999/xlink" viewBox="0 0 219 32.12"><style>path {fill:#a1a8ff;}</style><defs><linearGradient id="b" gradientUnits="userSpaceOnUse"><stop offset=".75" stop-color="#a1a8ff" /><stop offset="1" stop-color="#a1a8ff" stop-opacity="0" /></linearGradient><linearGradient id="c" gradientTransform="translate(78 32) rotate(-180)" gradientUnits="userSpaceOnUse"><stop offset="0" stop-color="#a1a8ff" stop-opacity="0" /><stop offset=".25" stop-color="#a1a8ff" /></linearGradient></defs><path d="M91.99,32.12c3.91,0,7.15-2.8,7.85-6.5h10.05c1.47,0,2.67-1.34,2.67-3,0-1.66-1.19-3-2.67-3h-9.9v-7.5h9.9c1.47,0,2.67-1.34,2.67-3s-1.19-3-2.67-3h-10.17c-.89-3.45-4.01-6-7.74-6-7.26,0-13.29,5.21-14.59,12.09-.27-.06-.27,7.88,0,7.82,1.3,6.88,7.33,12.09,14.59,12.09Z" /><path d="M141.44,12.09c-1.3-6.88-7.33-12.09-14.59-12.09-3.91,0-7.15,2.8-7.85,6.5l.12,19.5c.89,3.45,4.01,6,7.74,6,7.26,0,13.29-5.21,14.59-12.09.27.06.27-7.88,0-7.82Z"/><rect x="141" y="12" width="78" height="8" style="fill:url(#b);" /><rect y="12" width="78" height="8" transform="translate(78 32) rotate(180)" style="fill:url(#c);" /></svg>