<svg xmlns="http://www.w3.org/2000/svg" viewBox="0 0 57.5 48" fill="#f0f0f0"><path d="M53.5 20H38v-9.5c-1.02 0-2.05.25-2.83.75L18.2 22.17c-1.56 1.01-1.56 2.64 0 3.64l16.97 10.92c.78.5 1.8.75 2.83.75v-9.5h15.5a4 4 0 1 0 0-8zM8 47.5C3.86 47.5.5 44.14.5 40V8C.5 3.86 3.86.5 8 .5h23.5v7H16A8.51 8.51 0 0 0 7.5 16v16a8.51 8.51 0 0 0 8.5 8.5h15.5v7H8z"/><path d="M31 1v6H16c-4.96 0-9 4.04-9 9v16c0 4.96 4.04 9 9 9h15v6H8a7.01 7.01 0 0 1-7-7V8a7.01 7.01 0 0 1 7-7h23m1-1H8a8 8 0 0 0-8 8v32a8 8 0 0 0 8 8h24v-8H16a8 8 0 0 1-8-8V16a8 8 0 0 1 8-8h16V0h0z"/></svg>