<?xml version="1.0" encoding="UTF-8"?><svg id="a" xmlns="http://www.w3.org/2000/svg" viewBox="0 0 80 85"><path d="M56,0H24C10.75,0,0,10.75,0,24v32h80V24c0-13.25-10.75-24-24-24ZM24,36c-4.42,0-8-3.58-8-8s3.58-8,8-8,8,3.58,8,8-3.58,8-8,8ZM56,36c-4.42,0-8-3.58-8-8s3.58-8,8-8,8,3.58,8,8-3.58,8-8,8Z" style="fill:#f0f0f0; stroke-width:0px;"/><path d="M24,28s-.01,0-.01,0h.01Z" style="fill:#f0f0f0; stroke-width:0px;"/><path d="M0,61h80v8c0,8.83-7.17,16-16,16H16c-8.83,0-16-7.17-16-16v-8h0Z" style="fill:#f0f0f0; stroke-width:0px;"/></svg>