<?xml version="1.0" encoding="UTF-8"?><svg id="a" xmlns="http://www.w3.org/2000/svg" viewBox="0 0 80 85"><circle cx="24" cy="28" r="8" style="fill:#a1a8ff; stroke-width:0px;"/><circle cx="56" cy="28" r="8" style="fill:#a1a8ff; stroke-width:0px;"/><path d="M54,0h-28C11.66,0,0,11.66,0,26v47c0,6.62,5.38,12,12,12h56c6.62,0,12-5.38,12-12V26c0-14.34-11.66-26-26-26ZM72,73c0,2.21-1.79,4-4,4H12c-2.21,0-4-1.79-4-4v-17h64v17ZM72,48H8v-22c0-9.94,8.06-18,18-18h28c9.94,0,18,8.06,18,18v22Z" style="fill:#a1a8ff; stroke-width:0px;"/><path d="M24,28s-.01,0-.01,0h.01Z" style="fill:#000; stroke-width:0px;"/></svg>