<?xml version="1.0" encoding="UTF-8"?><svg id="a" xmlns="http://www.w3.org/2000/svg" viewBox="0 0 112.28 92"><path d="M66.78,33.24v25c8.84,0,16-5.6,16-12.5s-7.16-12.5-16-12.5h0Z" style="fill:#f0f0f0; stroke-width:0px;"/><path d="M57.99,92c3.31,0,6-2.68,6-6V6c0-2.43-1.46-4.61-3.7-5.54-2.25-.93-4.83-.42-6.54,1.3l-29.74,29.74h-12.01c-6.62,0-12,4.49-12,10v10c0,5.51,5.38,10,12,10h13.01l28.67,28.67c1.09,1.13,2.62,1.83,4.31,1.83Z" style="fill:#f0f0f0; stroke-width:0px;"/><path d="M70.78,71.97c-2.21,0-4-1.69-4-3.76s1.79-3.76,4-3.76c11.58,0,21-8.38,21-18.69s-9.42-18.69-21-18.69c-2.21,0-4-1.69-4-3.76s1.79-3.76,4-3.76c15.99,0,29,11.76,29,26.22s-13.01,26.22-29,26.22Z" style="fill:#f0f0f0; stroke-width:0px;"/><path d="M70.78,86.24c-2.21,0-4-1.69-4-3.76s1.79-3.76,4-3.76c18.47,0,33.5-14.57,33.5-32.47s-15.03-32.47-33.5-32.47c-2.21,0-4-1.69-4-3.76s1.79-3.76,4-3.76c22.88,0,41.5,17.94,41.5,40s-18.62,40-41.5,40Z" style="fill:#f0f0f0; stroke-width:0px;"/></svg>