<?xml version="1.0" encoding="UTF-8"?><svg id="a" xmlns="http://www.w3.org/2000/svg" viewBox="0 0 40 49"><path d="M13,15V5h14v10h6V3c0-1.66-1.34-3-3-3H10c-1.66,0-3,1.34-3,3v12h6Z" style="fill:#f0f0f0; stroke-width:0px;"/><path d="M36,17H4c-2.21,0-4,1.79-4,4v24c0,2.21,1.79,4,4,4h32c2.21,0,4-1.79,4-4v-24c0-2.21-1.79-4-4-4ZM23,35.19v3.81c0,1.66-1.34,3-3,3s-3-1.34-3-3v-3.81c-1.79-1.04-3-2.97-3-5.19,0-3.31,2.69-6,6-6s6,2.69,6,6c0,2.22-1.21,4.15-3,5.19Z" style="fill:#f0f0f0; stroke-width:0px;"/></svg>