<?xml version="1.0" encoding="utf-8"?>
<svg version="1.2" baseProfile="tiny" xmlns="http://www.w3.org/2000/svg" xmlns:xlink="http://www.w3.org/1999/xlink" x="0px" y="0px" viewBox="0 0 300 256" overflow="visible" xml:space="preserve">
<path fill="#181818" d="M295.5,195.1l-1.3-1.3c-2.4-2.3-5.3-3.7-8.4-4.1c7.9-9.8,11.9-22.2,11.9-36.5s-3.8-26.3-11.1-35.4
	c-5.7-7-12.8-12.6-20.9-16.3h12.4c3.9,0,7.7-1.6,10.5-4.4c2.8-2.8,4.3-6.7,4.3-10.6c0-18.9-7.4-34.8-21.3-45.8
	c-13-10.3-29.4-15.5-48.9-15.5c-11.7-0.1-23.2,2.1-34.1,6.7c0,0-0.1,0-0.1,0c-10.9,4.7-19.8,11.5-26.3,20.1
	c-4.4,5.8-7.6,12.6-9.2,19.8c-1.1-19.4-8.4-36.7-21.8-50C110.4,1.1,78-5.7,50.6,5C20.8,16.7,2.4,45.8,0.1,84.7c0,0.2,0,0.4,0,0.6
	c-0.8,33.6,10.4,66.1,32.3,94c19.5,24.9,46.8,45.4,78.7,59.1c26.8,11.5,55.7,17.6,83,17.6c5.1,0,10.1-0.2,15-0.6
	c35.1-3,65.1-16.4,86.7-38.9c2.8-2.9,4.3-6.7,4.2-10.7C300,201.8,298.3,197.9,295.5,195.1L295.5,195.1z"/>
<path fill="#DCDCDC" d="M284,204.7c-46.5,30.5-110,24.6-143-28.2c-9.3-21.4-13.9-40.3-8.5-67.4C169.6,4.3,21.5-26,14.8,85.7
	c-2.9,129.6,190.5,203,270.4,120.3L284,204.7L284,204.7z M36.3,69c-0.8-1-1.2-2.3-1.1-3.6c0-1.3,0.7-2.6,1.7-3.5
	c1-0.8,2.3-1.2,3.6-1l21.4,1.9c1.3,0.1,2.5,0.7,3.3,1.7c0.8,1,1.2,2.4,1,3.7c-0.1,1.3-0.7,2.5-1.6,3.4c-1,0.8-2.3,1.2-3.6,1
	l-21.4-1.9C38.4,70.6,37.2,70,36.3,69z M91.1,109.3c2.8,2.8,2.9,7.3,0.2,10.2c-2.7,2.9-7.2,3-10,0.2c-0.1-0.1-0.2-0.2-0.3-0.3
	c-0.7-0.7-1.2-1.4-1.5-2.3c-0.2,0.1-0.4,0.2-0.6,0.3c-8.4,3.6-18-0.3-21.6-8.9c-3.6-8.5,0.3-18.4,8.7-22s18,0.3,21.6,8.9
	c1.6,3.8,1.7,8.2,0.4,12.1C89.2,107.9,90.2,108.5,91.1,109.3L91.1,109.3L91.1,109.3z M87.5,74c-1.7-2.2-1.4-5.3,0.6-7.1
	c1-0.8,2.3-1.2,3.6-1l21.4,1.9c1.3,0.1,2.5,0.7,3.3,1.7c0.8,1,1.2,2.4,1,3.7c-0.1,2.6-2.2,4.6-4.8,4.5c-0.1,0-0.3,0-0.4,0l-21.4-1.9
	C89.6,75.6,88.4,75,87.5,74L87.5,74L87.5,74z"/>
<path fill="#DCDCDC" d="M194,193.9c-8.6-3.5-16.1-9.3-21.7-16.8c-5.5-7.4-8.2-16.2-8.2-26.2h28.5c0,6.6,3,11.8,8.9,15.8
	s13.5,5.9,22.6,5.9c9.3,0,16.5-1.9,21.5-5.6s7.6-8.6,7.6-14.8c0-6.8-2.8-11.6-8.5-14.5c-5.7-2.9-14.5-5.7-26.4-8.3
	c-10.9-2.5-19.8-5-26.7-7.6c-6.9-2.6-13.1-7.1-17.7-13c-5-6.1-7.4-14.3-7.4-24.9c-0.1-8.2,2.5-16.1,7.4-22.6
	c4.9-6.6,11.7-11.7,20.3-15.4c9-3.8,18.6-5.7,28.4-5.6c16.2,0,29.5,4.1,39.9,12.3c10.4,8.2,15.6,19.6,15.6,34h-28.5
	c0-5.8-2.7-10.4-8-14.1c-5.4-3.6-11.9-5.4-19.6-5.4c-7.5,0-13.6,1.8-18.5,5.3s-7.3,8-7.3,13.6s2.6,9.9,7.9,12.5
	c5.3,2.6,13.6,5.2,24.9,7.9c9.4,2,18.6,4.6,27.6,7.7c7.3,2.7,13.7,7.3,18.7,13.4c5.2,6.3,7.8,14.9,7.8,25.8c0,15-5.5,26.5-16.5,34.4
	s-25.3,11.9-42.9,11.9C213.4,199.8,203.4,197.8,194,193.9L194,193.9z"/>
</svg>
