<?xml version="1.0" encoding="UTF-8"?><svg id="Layer_1" xmlns="http://www.w3.org/2000/svg" viewBox="0 0 300 256"><defs><style>.cls-1{fill:#dcdcdc;}.cls-1,.cls-2{stroke-width:0px;}.cls-2{fill:#181818;}</style></defs><path class="cls-2" d="M295.49,195.15l-1.28-1.26c-2.35-2.31-5.29-3.67-8.35-4.08,7.85-9.81,11.94-22.18,11.94-36.48s-3.75-26.35-11.14-35.38c-5.66-7.01-12.84-12.59-20.94-16.3h12.44c3.92,0,7.68-1.59,10.45-4.41,2.77-2.82,4.33-6.65,4.32-10.64-.01-18.95-7.39-34.8-21.33-45.83-12.99-10.28-29.44-15.51-48.88-15.52-11.74-.12-23.22,2.13-34.09,6.7-.04.02-.08.04-.12.05-10.93,4.71-19.76,11.48-26.26,20.11-4.45,5.85-7.57,12.62-9.2,19.77-1.08-19.44-8.43-36.72-21.78-50.02C110.43,1.07,78.02-5.69,50.63,5.04,20.83,16.72,2.4,45.77.06,84.74c-.01.19-.02.38-.02.57-.77,33.57,10.41,66.06,32.31,93.97,19.55,24.91,46.78,45.35,78.74,59.11,26.75,11.52,55.69,17.61,82.97,17.61,5.05,0,10.05-.21,14.96-.63,35.1-3.02,65.09-16.45,86.74-38.85,2.76-2.86,4.29-6.73,4.24-10.74-.05-4.01-1.68-7.84-4.51-10.63Z"/><path class="cls-1" d="M283.95,204.72c-46.46,30.46-109.96,24.58-143-28.19-9.31-21.44-13.93-40.33-8.47-67.39C169.65,4.33,21.51-25.98,14.81,85.66c-2.95,129.57,190.48,203.02,270.42,120.31l-1.28-1.26ZM36.32,69c-.85-1-1.25-2.33-1.08-3.64.05-1.35.66-2.61,1.68-3.47,1.02-.83,2.33-1.2,3.63-1.05l21.36,1.91c1.29.06,2.49.66,3.32,1.66.83,1.04,1.2,2.39,1.03,3.72-.07,1.31-.66,2.54-1.64,3.4-1,.83-2.28,1.21-3.56,1.04l-21.36-1.89c-1.3-.07-2.52-.68-3.38-1.68ZM91.12,109.31c2.83,2.75,2.94,7.32.24,10.21-2.7,2.88-7.19,2.99-10.03.24-.1-.1-.2-.2-.3-.31-.66-.66-1.18-1.45-1.53-2.32-.21.1-.38.23-.59.32-8.37,3.62-18.04-.35-21.6-8.87-3.56-8.52.34-18.36,8.71-21.98,8.37-3.62,18.04.35,21.6,8.87,1.61,3.85,1.74,8.18.38,12.13,1.17.29,2.25.88,3.12,1.72h0ZM87.51,74.02c-1.65-2.17-1.39-5.27.61-7.12,1.02-.82,2.33-1.2,3.62-1.04l21.37,1.92c1.29.05,2.49.66,3.32,1.66.83,1.04,1.2,2.38,1.03,3.71-.11,2.58-2.24,4.58-4.77,4.47-.13,0-.26-.02-.4-.03l-21.36-1.89c-1.32-.06-2.56-.66-3.43-1.67h0Z"/><path class="cls-1" d="M193.96,193.94c-8.6-3.5-16.1-9.32-21.69-16.83-5.46-7.41-8.19-16.16-8.19-26.25h28.52c0,6.59,2.98,11.84,8.95,15.75,5.97,3.91,13.5,5.87,22.61,5.87,9.3,0,16.48-1.85,21.54-5.56s7.59-8.65,7.58-14.83c0-6.79-2.83-11.62-8.5-14.51-5.66-2.89-14.46-5.67-26.4-8.34-10.92-2.47-19.82-4.99-26.7-7.56-6.95-2.63-13.07-7.11-17.73-12.97-4.96-6.07-7.44-14.35-7.43-24.86-.1-8.16,2.52-16.11,7.43-22.56,4.95-6.59,11.72-11.74,20.32-15.44,8.99-3.78,18.64-5.67,28.37-5.56,16.19,0,29.49,4.12,39.89,12.35,10.41,8.24,15.61,19.56,15.62,33.97h-28.52c0-5.77-2.68-10.45-8.04-14.05-5.36-3.6-11.89-5.4-19.57-5.41-7.48,0-13.65,1.75-18.51,5.26-4.86,3.51-7.28,8.04-7.28,13.59s2.63,9.94,7.89,12.51c5.26,2.58,13.55,5.2,24.88,7.87,9.35,1.97,18.57,4.55,27.6,7.72,7.3,2.68,13.74,7.32,18.66,13.43,5.17,6.29,7.75,14.88,7.75,25.79,0,15.04-5.51,26.52-16.53,34.43s-25.33,11.88-42.93,11.89c-10.14.11-20.2-1.83-29.6-5.71Z"/></svg>